{"accessors":[{"bufferView":0,"componentType":5126,"count":24,"min":[-4.650000095367432,-0.004999999888241291,-0.6600000262260437],"max":[4.650000095367432,0.014999999664723874,0.6600000262260437],"type":"VEC3","name":"Cube.001_vertices#0_POSITION"},{"bufferView":0,"byteOffset":12,"componentType":5120,"count":24,"type":"VEC4","name":"Cube.001_vertices#0_TANGENT"},{"bufferView":0,"byteOffset":16,"componentType":5120,"count":24,"type":"VEC4","name":"Cube.001_vertices#0_NORMAL"},{"bufferView":0,"byteOffset":20,"componentType":5122,"count":24,"type":"VEC2","name":"Cube.001_vertices#0_TEXCOORD_0"},{"bufferView":0,"byteOffset":24,"componentType":5122,"count":24,"type":"VEC2","name":"Cube.001_vertices#0_TEXCOORD_1"},{"bufferView":0,"byteOffset":28,"componentType":5123,"count":24,"type":"VEC4","name":"Cube.001_vertices#0_COLOR_0"},{"bufferView":1,"componentType":5123,"count":36,"type":"SCALAR","name":"Cube.001_indices#0"},{"bufferView":0,"byteOffset":864,"componentType":5126,"count":24,"min":[-0.6600000262260437,-0.004999999888241291,-4.650000095367432],"max":[0.6600000262260437,0.014999999664723874,4.650000095367432],"type":"VEC3","name":"Cube.002_vertices#0_POSITION"},{"bufferView":0,"byteOffset":876,"componentType":5120,"count":24,"type":"VEC4","name":"Cube.002_vertices#0_TANGENT"},{"bufferView":0,"byteOffset":880,"componentType":5120,"count":24,"type":"VEC4","name":"Cube.002_vertices#0_NORMAL"},{"bufferView":0,"byteOffset":884,"componentType":5122,"count":24,"type":"VEC2","name":"Cube.002_vertices#0_TEXCOORD_0"},{"bufferView":0,"byteOffset":888,"componentType":5122,"count":24,"type":"VEC2","name":"Cube.002_vertices#0_TEXCOORD_1"},{"bufferView":0,"byteOffset":892,"componentType":5123,"count":24,"type":"VEC4","name":"Cube.002_vertices#0_COLOR_0"},{"bufferView":1,"byteOffset":72,"componentType":5123,"count":36,"type":"SCALAR","name":"Cube.002_indices#0"},{"bufferView":0,"byteOffset":1728,"componentType":5126,"count":24,"min":[-4.550000190734863,0.015000000596046448,-0.6000000238418579],"max":[4.550000190734863,0.03500000014901161,0.6000000238418579],"type":"VEC3","name":"Cube.003_vertices#0_POSITION"},{"bufferView":0,"byteOffset":1740,"componentType":5120,"count":24,"type":"VEC4","name":"Cube.003_vertices#0_TANGENT"},{"bufferView":0,"byteOffset":1744,"componentType":5120,"count":24,"type":"VEC4","name":"Cube.003_vertices#0_NORMAL"},{"bufferView":0,"byteOffset":1748,"componentType":5122,"count":24,"type":"VEC2","name":"Cube.003_vertices#0_TEXCOORD_0"},{"bufferView":0,"byteOffset":1752,"componentType":5122,"count":24,"type":"VEC2","name":"Cube.003_vertices#0_TEXCOORD_1"},{"bufferView":0,"byteOffset":1756,"componentType":5123,"count":24,"type":"VEC4","name":"Cube.003_vertices#0_COLOR_0"},{"bufferView":1,"byteOffset":144,"componentType":5123,"count":36,"type":"SCALAR","name":"Cube.003_indices#0"},{"bufferView":0,"byteOffset":2592,"componentType":5126,"count":24,"min":[-0.6000000238418579,0.015000000596046448,-4.550000190734863],"max":[0.6000000238418579,0.03500000014901161,4.550000190734863],"type":"VEC3","name":"Cube.004_vertices#0_POSITION"},{"bufferView":0,"byteOffset":2604,"componentType":5120,"count":24,"type":"VEC4","name":"Cube.004_vertices#0_TANGENT"},{"bufferView":0,"byteOffset":2608,"componentType":5120,"count":24,"type":"VEC4","name":"Cube.004_vertices#0_NORMAL"},{"bufferView":0,"byteOffset":2612,"componentType":5122,"count":24,"type":"VEC2","name":"Cube.004_vertices#0_TEXCOORD_0"},{"bufferView":0,"byteOffset":2616,"componentType":5122,"count":24,"type":"VEC2","name":"Cube.004_vertices#0_TEXCOORD_1"},{"bufferView":0,"byteOffset":2620,"componentType":5123,"count":24,"type":"VEC4","name":"Cube.004_vertices#0_COLOR_0"},{"bufferView":1,"byteOffset":216,"componentType":5123,"count":36,"type":"SCALAR","name":"Cube.004_indices#0"}],"asset":{"generator":"Khronos glTF Blender I/O v4.2.83 and Asobo Studio MSFS2024 Blender I/O v6.4.9 with Blender v4.2.23","copyright":"OPS ROOM","version":"2.0","extensions":{"ASOBO_asset_optimized":{"BoundingBoxMax":[4.650000095367432,0.03500000014901161,4.650000095367432],"BoundingBoxMin":[-4.650000095367432,-0.004999999888241291,-4.650000095367432],"MajorVersion":4,"MinorVersion":7,"UseCheckerboardMaterialForMissingTextures":true,"UseOnlyFilenameForImageURI":true},"ASOBO_normal_map_convention":{"tangent_space_convention":"DirectX"}}},"bufferViews":[{"buffer":0,"byteLength":3456,"byteStride":36,"target":34962,"name":"BufferViewVertexND"},{"buffer":0,"byteLength":288,"byteOffset":3456,"target":34963,"name":"BufferViewIndexU16"}],"materials":[{"name":"X_TRIM","pbrMetallicRoughness":{"baseColorFactor":[0.019999999552965165,0.019999999552965165,0.019999999552965165,1.0],"metallicFactor":0.0,"roughnessFactor":0.8500000238418579}},{"name":"X_TOP","pbrMetallicRoughness":{"baseColorFactor":[0.9200000166893004,0.6600000262260437,0.0,1.0],"metallicFactor":0.0,"roughnessFactor":0.9200000166893004}}],"meshes":[{"primitives":[{"attributes":{"COLOR_0":5,"NORMAL":2,"POSITION":0,"TANGENT":1,"TEXCOORD_0":3,"TEXCOORD_1":4},"indices":6,"material":0,"mode":4,"extras":{"ASOBO_primitive":{"PrimitiveCount":12,"UV2Length":0.625,"UVLength":0.625,"VertexCount":24,"VertexType":"VTX","VertexVersion":2}}}],"name":"Cube.001"},{"primitives":[{"attributes":{"COLOR_0":12,"NORMAL":9,"POSITION":7,"TANGENT":8,"TEXCOORD_0":10,"TEXCOORD_1":11},"indices":13,"material":0,"mode":4,"extras":{"ASOBO_primitive":{"PrimitiveCount":12,"UV2Length":0.625,"UVLength":0.625,"VertexCount":24,"VertexType":"VTX","VertexVersion":2}}}],"name":"Cube.002"},{"primitives":[{"attributes":{"COLOR_0":19,"NORMAL":16,"POSITION":14,"TANGENT":15,"TEXCOORD_0":17,"TEXCOORD_1":18},"indices":20,"material":1,"mode":4,"extras":{"ASOBO_primitive":{"PrimitiveCount":12,"UV2Length":0.625,"UVLength":0.625,"VertexCount":24,"VertexType":"VTX","VertexVersion":2}}}],"name":"Cube.003"},{"primitives":[{"attributes":{"COLOR_0":26,"NORMAL":23,"POSITION":21,"TANGENT":22,"TEXCOORD_0":24,"TEXCOORD_1":25},"indices":27,"material":1,"mode":4,"extras":{"ASOBO_primitive":{"PrimitiveCount":12,"UV2Length":0.625,"UVLength":0.625,"VertexCount":24,"VertexType":"VTX","VertexVersion":2}}}],"name":"Cube.004"}],"nodes":[{"mesh":0,"extensions":{"ASOBO_unique_id":{"id":"X_TRIM_A"}},"name":"X_TRIM_A"},{"mesh":1,"extensions":{"ASOBO_unique_id":{"id":"X_TRIM_B"}},"name":"X_TRIM_B"},{"mesh":2,"extensions":{"ASOBO_unique_id":{"id":"X_LEG_A"}},"name":"X_LEG_A"},{"mesh":3,"extensions":{"ASOBO_unique_id":{"id":"X_LEG_B"}},"name":"X_LEG_B"}],"scene":0,"scenes":[{"nodes":[0,1,2,3],"name":"Scene"}],"extensionsUsed":["ASOBO_normal_map_convention","ASOBO_unique_id","ASOBO_asset_optimized"],"buffers":[{"byteLength":3744,"uri":"X_MARKER_TAXIWAY_LOD00.bin"}]}
