{"accessors":[{"bufferView":0,"componentType":5126,"count":24,"min":[-9.149999618530274,0.015000000596046448,-1.5],"max":[9.149999618530274,0.03500000014901161,1.5],"type":"VEC3","name":"Cube.001_vertices#0_POSITION"},{"bufferView":0,"byteOffset":12,"componentType":5120,"count":24,"type":"VEC4","name":"Cube.001_vertices#0_TANGENT"},{"bufferView":0,"byteOffset":16,"componentType":5120,"count":24,"type":"VEC4","name":"Cube.001_vertices#0_NORMAL"},{"bufferView":0,"byteOffset":20,"componentType":5122,"count":24,"type":"VEC2","name":"Cube.001_vertices#0_TEXCOORD_0"},{"bufferView":0,"byteOffset":24,"componentType":5122,"count":24,"type":"VEC2","name":"Cube.001_vertices#0_TEXCOORD_1"},{"bufferView":0,"byteOffset":28,"componentType":5123,"count":24,"type":"VEC4","name":"Cube.001_vertices#0_COLOR_0"},{"bufferView":1,"componentType":5123,"count":36,"type":"SCALAR","name":"Cube.001_indices#0"},{"bufferView":0,"byteOffset":864,"componentType":5126,"count":24,"min":[-1.5,0.015000000596046448,-9.149999618530274],"max":[1.5,0.03500000014901161,9.149999618530274],"type":"VEC3","name":"Cube.002_vertices#0_POSITION"},{"bufferView":0,"byteOffset":876,"componentType":5120,"count":24,"type":"VEC4","name":"Cube.002_vertices#0_TANGENT"},{"bufferView":0,"byteOffset":880,"componentType":5120,"count":24,"type":"VEC4","name":"Cube.002_vertices#0_NORMAL"},{"bufferView":0,"byteOffset":884,"componentType":5122,"count":24,"type":"VEC2","name":"Cube.002_vertices#0_TEXCOORD_0"},{"bufferView":0,"byteOffset":888,"componentType":5122,"count":24,"type":"VEC2","name":"Cube.002_vertices#0_TEXCOORD_1"},{"bufferView":0,"byteOffset":892,"componentType":5123,"count":24,"type":"VEC4","name":"Cube.002_vertices#0_COLOR_0"},{"bufferView":1,"byteOffset":72,"componentType":5123,"count":36,"type":"SCALAR","name":"Cube.002_indices#0"}],"asset":{"generator":"Khronos glTF Blender I/O v4.2.83 and Asobo Studio MSFS2024 Blender I/O v6.4.9 with Blender v4.2.23","copyright":"OPS ROOM","version":"2.0","extensions":{"ASOBO_asset_optimized":{"BoundingBoxMax":[9.149999618530274,0.03500000014901161,9.149999618530274],"BoundingBoxMin":[-9.149999618530274,0.015000000596046448,-9.149999618530274],"MajorVersion":4,"MinorVersion":7,"UseCheckerboardMaterialForMissingTextures":true,"UseOnlyFilenameForImageURI":true},"ASOBO_normal_map_convention":{"tangent_space_convention":"DirectX"}}},"bufferViews":[{"buffer":0,"byteLength":1728,"byteStride":36,"target":34962,"name":"BufferViewVertexND"},{"buffer":0,"byteLength":144,"byteOffset":1728,"target":34963,"name":"BufferViewIndexU16"}],"materials":[{"name":"X_TOP","pbrMetallicRoughness":{"baseColorFactor":[0.9700000286102296,0.9700000286102296,0.9700000286102296,1.0],"metallicFactor":0.0,"roughnessFactor":0.9200000166893004}}],"meshes":[{"primitives":[{"attributes":{"COLOR_0":5,"NORMAL":2,"POSITION":0,"TANGENT":1,"TEXCOORD_0":3,"TEXCOORD_1":4},"indices":6,"material":0,"mode":4,"extras":{"ASOBO_primitive":{"PrimitiveCount":12,"UV2Length":0.625,"UVLength":0.625,"VertexCount":24,"VertexType":"VTX","VertexVersion":2}}}],"name":"Cube.001"},{"primitives":[{"attributes":{"COLOR_0":12,"NORMAL":9,"POSITION":7,"TANGENT":8,"TEXCOORD_0":10,"TEXCOORD_1":11},"indices":13,"material":0,"mode":4,"extras":{"ASOBO_primitive":{"PrimitiveCount":12,"UV2Length":0.625,"UVLength":0.625,"VertexCount":24,"VertexType":"VTX","VertexVersion":2}}}],"name":"Cube.002"}],"nodes":[{"mesh":0,"extensions":{"ASOBO_unique_id":{"id":"X_LEG_A"}},"name":"X_LEG_A"},{"mesh":1,"extensions":{"ASOBO_unique_id":{"id":"X_LEG_B"}},"name":"X_LEG_B"}],"scene":0,"scenes":[{"nodes":[0,1],"name":"Scene"}],"extensionsUsed":["ASOBO_normal_map_convention","ASOBO_unique_id","ASOBO_asset_optimized"],"buffers":[{"byteLength":1872,"uri":"X_MARKER_RUNWAY_LOD00.bin"}]}
