{
	"asset":{
		"copyright":"OPS ROOM",
		"extensions":{
			"ASOBO_normal_map_convention":{
				"tangent_space_convention":"DirectX"
			}
		},
		"generator":"Khronos glTF Blender I/O v4.2.83 and Asobo Studio MSFS2024 Blender I/O v6.4.9 with Blender v4.2.23",
		"version":"2.0"
	},
	"extensionsUsed":[
		"ASOBO_normal_map_convention",
		"ASOBO_unique_id"
	],
	"scene":0,
	"scenes":[
		{
			"name":"Scene",
			"nodes":[
				0,
				1,
				2,
				3
			]
		}
	],
	"nodes":[
		{
			"extensions":{
				"ASOBO_unique_id":{
					"id":"X_TRIM_A"
				}
			},
			"mesh":0,
			"name":"X_TRIM_A"
		},
		{
			"extensions":{
				"ASOBO_unique_id":{
					"id":"X_TRIM_B"
				}
			},
			"mesh":1,
			"name":"X_TRIM_B"
		},
		{
			"extensions":{
				"ASOBO_unique_id":{
					"id":"X_LEG_A"
				}
			},
			"mesh":2,
			"name":"X_LEG_A"
		},
		{
			"extensions":{
				"ASOBO_unique_id":{
					"id":"X_LEG_B"
				}
			},
			"mesh":3,
			"name":"X_LEG_B"
		}
	],
	"materials":[
		{
			"alphaMode":"OPAQUE",
			"doubleSided":false,
			"emissiveFactor":[
				0,
				0,
				0
			],
			"extras":{},
			"name":"X_TRIM",
			"pbrMetallicRoughness":{
				"baseColorFactor":[
					0.019999999552965164,
					0.019999999552965164,
					0.019999999552965164,
					1
				],
				"metallicFactor":0,
				"roughnessFactor":0.8500000238418579
			}
		},
		{
			"alphaMode":"OPAQUE",
			"doubleSided":false,
			"emissiveFactor":[
				0,
				0,
				0
			],
			"extras":{},
			"name":"X_TOP",
			"pbrMetallicRoughness":{
				"baseColorFactor":[
					0.9200000166893005,
					0.6600000262260437,
					0,
					1
				],
				"metallicFactor":0,
				"roughnessFactor":0.9200000166893005
			}
		}
	],
	"meshes":[
		{
			"name":"Cube.001",
			"primitives":[
				{
					"attributes":{
						"POSITION":0,
						"NORMAL":1,
						"TEXCOORD_0":2,
						"TANGENT":3
					},
					"indices":4,
					"material":0
				}
			]
		},
		{
			"name":"Cube.002",
			"primitives":[
				{
					"attributes":{
						"POSITION":5,
						"NORMAL":6,
						"TEXCOORD_0":7,
						"TANGENT":8
					},
					"indices":4,
					"material":0
				}
			]
		},
		{
			"name":"Cube.003",
			"primitives":[
				{
					"attributes":{
						"POSITION":9,
						"NORMAL":10,
						"TEXCOORD_0":11,
						"TANGENT":12
					},
					"indices":4,
					"material":1
				}
			]
		},
		{
			"name":"Cube.004",
			"primitives":[
				{
					"attributes":{
						"POSITION":13,
						"NORMAL":14,
						"TEXCOORD_0":15,
						"TANGENT":16
					},
					"indices":4,
					"material":1
				}
			]
		}
	],
	"accessors":[
		{
			"bufferView":0,
			"componentType":5126,
			"count":24,
			"max":[
				4.650000095367432,
				0.014999999664723873,
				0.6600000262260437
			],
			"min":[
				-4.650000095367432,
				-0.004999999888241291,
				-0.6600000262260437
			],
			"type":"VEC3"
		},
		{
			"bufferView":1,
			"componentType":5126,
			"count":24,
			"type":"VEC3"
		},
		{
			"bufferView":2,
			"componentType":5126,
			"count":24,
			"type":"VEC2"
		},
		{
			"bufferView":3,
			"componentType":5126,
			"count":24,
			"type":"VEC4"
		},
		{
			"bufferView":4,
			"componentType":5123,
			"count":36,
			"type":"SCALAR"
		},
		{
			"bufferView":5,
			"componentType":5126,
			"count":24,
			"max":[
				0.6600000262260437,
				0.014999999664723873,
				4.650000095367432
			],
			"min":[
				-0.6600000262260437,
				-0.004999999888241291,
				-4.650000095367432
			],
			"type":"VEC3"
		},
		{
			"bufferView":6,
			"componentType":5126,
			"count":24,
			"type":"VEC3"
		},
		{
			"bufferView":7,
			"componentType":5126,
			"count":24,
			"type":"VEC2"
		},
		{
			"bufferView":8,
			"componentType":5126,
			"count":24,
			"type":"VEC4"
		},
		{
			"bufferView":9,
			"componentType":5126,
			"count":24,
			"max":[
				4.550000190734863,
				0.03500000014901161,
				0.6000000238418579
			],
			"min":[
				-4.550000190734863,
				0.015000000596046448,
				-0.6000000238418579
			],
			"type":"VEC3"
		},
		{
			"bufferView":10,
			"componentType":5126,
			"count":24,
			"type":"VEC3"
		},
		{
			"bufferView":11,
			"componentType":5126,
			"count":24,
			"type":"VEC2"
		},
		{
			"bufferView":12,
			"componentType":5126,
			"count":24,
			"type":"VEC4"
		},
		{
			"bufferView":13,
			"componentType":5126,
			"count":24,
			"max":[
				0.6000000238418579,
				0.03500000014901161,
				4.550000190734863
			],
			"min":[
				-0.6000000238418579,
				0.015000000596046448,
				-4.550000190734863
			],
			"type":"VEC3"
		},
		{
			"bufferView":14,
			"componentType":5126,
			"count":24,
			"type":"VEC3"
		},
		{
			"bufferView":15,
			"componentType":5126,
			"count":24,
			"type":"VEC2"
		},
		{
			"bufferView":16,
			"componentType":5126,
			"count":24,
			"type":"VEC4"
		}
	],
	"bufferViews":[
		{
			"buffer":0,
			"byteLength":288,
			"byteOffset":0,
			"target":34962
		},
		{
			"buffer":0,
			"byteLength":288,
			"byteOffset":288,
			"target":34962
		},
		{
			"buffer":0,
			"byteLength":192,
			"byteOffset":576,
			"target":34962
		},
		{
			"buffer":0,
			"byteLength":384,
			"byteOffset":768,
			"target":34962
		},
		{
			"buffer":0,
			"byteLength":72,
			"byteOffset":1152,
			"target":34963
		},
		{
			"buffer":0,
			"byteLength":288,
			"byteOffset":1224,
			"target":34962
		},
		{
			"buffer":0,
			"byteLength":288,
			"byteOffset":1512,
			"target":34962
		},
		{
			"buffer":0,
			"byteLength":192,
			"byteOffset":1800,
			"target":34962
		},
		{
			"buffer":0,
			"byteLength":384,
			"byteOffset":1992,
			"target":34962
		},
		{
			"buffer":0,
			"byteLength":288,
			"byteOffset":2376,
			"target":34962
		},
		{
			"buffer":0,
			"byteLength":288,
			"byteOffset":2664,
			"target":34962
		},
		{
			"buffer":0,
			"byteLength":192,
			"byteOffset":2952,
			"target":34962
		},
		{
			"buffer":0,
			"byteLength":384,
			"byteOffset":3144,
			"target":34962
		},
		{
			"buffer":0,
			"byteLength":288,
			"byteOffset":3528,
			"target":34962
		},
		{
			"buffer":0,
			"byteLength":288,
			"byteOffset":3816,
			"target":34962
		},
		{
			"buffer":0,
			"byteLength":192,
			"byteOffset":4104,
			"target":34962
		},
		{
			"buffer":0,
			"byteLength":384,
			"byteOffset":4296,
			"target":34962
		}
	],
	"buffers":[
		{
			"byteLength":4680,
			"uri":"X_MARKER_TAXIWAY.bin"
		}
	]
}
