{"accessors":[{"bufferView":0,"componentType":5126,"count":640,"min":[-0.125,0.0,-1.2200000286102296],"max":[0.125,0.25,1.2200000286102296],"type":"VEC3","name":"Cube.001_vertices#0_POSITION"},{"bufferView":0,"byteOffset":12,"componentType":5120,"count":640,"type":"VEC4","name":"Cube.001_vertices#0_TANGENT"},{"bufferView":0,"byteOffset":16,"componentType":5120,"count":640,"type":"VEC4","name":"Cube.001_vertices#0_NORMAL"},{"bufferView":0,"byteOffset":20,"componentType":5122,"count":640,"type":"VEC2","name":"Cube.001_vertices#0_TEXCOORD_0"},{"bufferView":0,"byteOffset":24,"componentType":5122,"count":640,"type":"VEC2","name":"Cube.001_vertices#0_TEXCOORD_1"},{"bufferView":0,"byteOffset":28,"componentType":5123,"count":640,"type":"VEC4","name":"Cube.001_vertices#0_COLOR_0"},{"bufferView":1,"componentType":5123,"count":1134,"type":"SCALAR","name":"Cube.001_indices#0"},{"bufferView":0,"byteOffset":23040,"componentType":5126,"count":212,"min":[-0.05999999865889549,0.06499981880187988,-1.320000171661377],"max":[0.05999999865889549,0.18500018119812013,-1.2199997901916505],"type":"VEC3","name":"Cylinder_vertices#0_POSITION"},{"bufferView":0,"byteOffset":23052,"componentType":5120,"count":212,"type":"VEC4","name":"Cylinder_vertices#0_TANGENT"},{"bufferView":0,"byteOffset":23056,"componentType":5120,"count":212,"type":"VEC4","name":"Cylinder_vertices#0_NORMAL"},{"bufferView":0,"byteOffset":23060,"componentType":5122,"count":212,"type":"VEC2","name":"Cylinder_vertices#0_TEXCOORD_0"},{"bufferView":0,"byteOffset":23064,"componentType":5122,"count":212,"type":"VEC2","name":"Cylinder_vertices#0_TEXCOORD_1"},{"bufferView":0,"byteOffset":23068,"componentType":5123,"count":212,"type":"VEC4","name":"Cylinder_vertices#0_COLOR_0"},{"bufferView":1,"byteOffset":2268,"componentType":5123,"count":372,"type":"SCALAR","name":"Cylinder_indices#0"},{"bufferView":0,"byteOffset":30672,"componentType":5126,"count":192,"min":[-0.05000000074505806,0.2499999850988388,-0.05000000074505806],"max":[0.05000000074505806,0.26999998092651369,0.05000000074505806],"type":"VEC3","name":"Cylinder.002_vertices#0_POSITION"},{"bufferView":0,"byteOffset":30684,"componentType":5120,"count":192,"type":"VEC4","name":"Cylinder.002_vertices#0_TANGENT"},{"bufferView":0,"byteOffset":30688,"componentType":5120,"count":192,"type":"VEC4","name":"Cylinder.002_vertices#0_NORMAL"},{"bufferView":0,"byteOffset":30692,"componentType":5122,"count":192,"type":"VEC2","name":"Cylinder.002_vertices#0_TEXCOORD_0"},{"bufferView":0,"byteOffset":30696,"componentType":5122,"count":192,"type":"VEC2","name":"Cylinder.002_vertices#0_TEXCOORD_1"},{"bufferView":0,"byteOffset":30700,"componentType":5123,"count":192,"type":"VEC4","name":"Cylinder.002_vertices#0_COLOR_0"},{"bufferView":1,"byteOffset":3012,"componentType":5123,"count":372,"type":"SCALAR","name":"Cylinder.002_indices#0"},{"bufferView":0,"byteOffset":37584,"componentType":5126,"count":192,"min":[-0.017999999225139619,0.27000001072883608,-0.017999999225139619],"max":[0.017999999225139619,0.28999999165534975,0.017999999225139619],"type":"VEC3","name":"Cylinder.003_vertices#0_POSITION"},{"bufferView":0,"byteOffset":37596,"componentType":5120,"count":192,"type":"VEC4","name":"Cylinder.003_vertices#0_TANGENT"},{"bufferView":0,"byteOffset":37600,"componentType":5120,"count":192,"type":"VEC4","name":"Cylinder.003_vertices#0_NORMAL"},{"bufferView":0,"byteOffset":37604,"componentType":5122,"count":192,"type":"VEC2","name":"Cylinder.003_vertices#0_TEXCOORD_0"},{"bufferView":0,"byteOffset":37608,"componentType":5122,"count":192,"type":"VEC2","name":"Cylinder.003_vertices#0_TEXCOORD_1"},{"bufferView":0,"byteOffset":37612,"componentType":5123,"count":192,"type":"VEC4","name":"Cylinder.003_vertices#0_COLOR_0"},{"bufferView":1,"byteOffset":3756,"componentType":5123,"count":372,"type":"SCALAR","name":"Cylinder.003_indices#0"},{"bufferView":0,"byteOffset":44496,"componentType":5126,"count":125,"min":[-0.022000011056661607,0.0,-0.022000016644597055],"max":[0.02200000360608101,0.02199999988079071,0.022000007331371309],"type":"VEC3","name":"Sphere_vertices#0_POSITION"},{"bufferView":0,"byteOffset":44508,"componentType":5120,"count":125,"type":"VEC4","name":"Sphere_vertices#0_TANGENT"},{"bufferView":0,"byteOffset":44512,"componentType":5120,"count":125,"type":"VEC4","name":"Sphere_vertices#0_NORMAL"},{"bufferView":0,"byteOffset":44516,"componentType":5122,"count":125,"type":"VEC2","name":"Sphere_vertices#0_TEXCOORD_0"},{"bufferView":0,"byteOffset":44520,"componentType":5122,"count":125,"type":"VEC2","name":"Sphere_vertices#0_TEXCOORD_1"},{"bufferView":0,"byteOffset":44524,"componentType":5123,"count":125,"type":"VEC4","name":"Sphere_vertices#0_COLOR_0"},{"bufferView":1,"byteOffset":4500,"componentType":5123,"count":540,"type":"SCALAR","name":"Sphere_indices#0"}],"asset":{"generator":"Khronos glTF Blender I/O v4.2.83 and Asobo Studio MSFS2024 Blender I/O v6.4.9 with Blender v4.2.23","copyright":"OPS ROOM","version":"2.0","extensions":{"ASOBO_asset_optimized":{"BoundingBoxMax":[0.125,0.3140000104904175,1.2200000286102296],"BoundingBoxMin":[-0.125,0.0,-1.320000171661377],"MajorVersion":4,"MinorVersion":7,"UseCheckerboardMaterialForMissingTextures":true,"UseOnlyFilenameForImageURI":true},"ASOBO_normal_map_convention":{"tangent_space_convention":"DirectX"}}},"bufferViews":[{"buffer":0,"byteLength":48996,"byteStride":36,"target":34962,"name":"BufferViewVertexND"},{"buffer":0,"byteLength":5580,"byteOffset":48996,"target":34963,"name":"BufferViewIndexU16"}],"materials":[{"name":"BARRIER_WHITE","pbrMetallicRoughness":{"metallicFactor":0.0,"roughnessFactor":0.6499999761581421}},{"name":"CAP_DARK","pbrMetallicRoughness":{"baseColorFactor":[0.25,0.25,0.25,1.0],"metallicFactor":0.0,"roughnessFactor":0.5}},{"name":"BEACON_RED_DIM","emissiveFactor":[80.0,4.799999713897705,3.1999998092651369],"pbrMetallicRoughness":{"baseColorFactor":[0.6000000238418579,0.03999999910593033,0.029999999329447744,1.0],"metallicFactor":0.0,"roughnessFactor":0.20000000298023225}}],"meshes":[{"primitives":[{"attributes":{"COLOR_0":5,"NORMAL":2,"POSITION":0,"TANGENT":1,"TEXCOORD_0":3,"TEXCOORD_1":4},"indices":6,"material":0,"mode":4,"extras":{"ASOBO_primitive":{"PrimitiveCount":378,"UV2Length":0.7071067690849304,"UVLength":0.7071067690849304,"VertexCount":640,"VertexType":"VTX","VertexVersion":2}}}],"name":"Cube.001"},{"primitives":[{"attributes":{"COLOR_0":12,"NORMAL":9,"POSITION":7,"TANGENT":8,"TEXCOORD_0":10,"TEXCOORD_1":11},"indices":13,"material":0,"mode":4,"extras":{"ASOBO_primitive":{"PrimitiveCount":124,"UV2Length":0.7035801410675049,"UVLength":0.7035801410675049,"VertexCount":212,"VertexType":"VTX","VertexVersion":2}}}],"name":"Cylinder"},{"primitives":[{"attributes":{"COLOR_0":19,"NORMAL":16,"POSITION":14,"TANGENT":15,"TEXCOORD_0":17,"TEXCOORD_1":18},"indices":20,"material":1,"mode":4,"extras":{"ASOBO_primitive":{"PrimitiveCount":124,"UV2Length":0.7035801410675049,"UVLength":0.7035801410675049,"VertexCount":192,"VertexType":"VTX","VertexVersion":2}}}],"name":"Cylinder.002"},{"primitives":[{"attributes":{"COLOR_0":26,"NORMAL":23,"POSITION":21,"TANGENT":22,"TEXCOORD_0":24,"TEXCOORD_1":25},"indices":27,"material":2,"mode":4,"extras":{"ASOBO_primitive":{"PrimitiveCount":124,"UV2Length":0.7035801410675049,"UVLength":0.7035801410675049,"VertexCount":192,"VertexType":"VTX","VertexVersion":2}}}],"name":"Cylinder.003"},{"primitives":[{"attributes":{"COLOR_0":33,"NORMAL":30,"POSITION":28,"TANGENT":29,"TEXCOORD_0":31,"TEXCOORD_1":32},"indices":34,"material":2,"mode":4,"extras":{"ASOBO_primitive":{"PrimitiveCount":180,"UV2Length":0.55901700258255,"UVLength":0.55901700258255,"VertexCount":125,"VertexType":"VTX","VertexVersion":2}}}],"name":"Sphere"}],"nodes":[{"mesh":0,"extensions":{"ASOBO_unique_id":{"id":"BARRIER_BODY"}},"name":"BARRIER_BODY"},{"mesh":1,"extensions":{"ASOBO_unique_id":{"id":"MALE_TAB"}},"name":"MALE_TAB"},{"mesh":2,"extensions":{"ASOBO_unique_id":{"id":"FILL_CAP"}},"name":"FILL_CAP"},{"mesh":3,"extensions":{"ASOBO_unique_id":{"id":"BEACON_BASE"}},"name":"BEACON_BASE"},{"translation":[0.0,0.2919999957084656,0.0],"mesh":4,"extensions":{"ASOBO_unique_id":{"id":"BEACON_DOME"}},"name":"BEACON_DOME"}],"scene":0,"scenes":[{"nodes":[0,1,2,3,4],"name":"Scene"}],"extensionsUsed":["ASOBO_normal_map_convention","ASOBO_unique_id","ASOBO_asset_optimized"],"buffers":[{"byteLength":54576,"uri":"BARRIER_LOW_WHITE_LOD00.bin"}]}
