{"accessors":[{"bufferView":0,"componentType":5126,"count":1886,"min":[-1.799067497253418,0.0010515163885429502,-0.1080770194530487],"max":[1.7990673780441285,0.4000000059604645,0.10807487368583679],"type":"VEC3","name":"Cube.005_vertices#0_POSITION"},{"bufferView":0,"byteOffset":12,"componentType":5120,"count":1886,"type":"VEC4","name":"Cube.005_vertices#0_TANGENT"},{"bufferView":0,"byteOffset":16,"componentType":5120,"count":1886,"type":"VEC4","name":"Cube.005_vertices#0_NORMAL"},{"bufferView":0,"byteOffset":20,"componentType":5122,"count":1886,"type":"VEC2","name":"Cube.005_vertices#0_TEXCOORD_0"},{"bufferView":0,"byteOffset":24,"componentType":5122,"count":1886,"type":"VEC2","name":"Cube.005_vertices#0_TEXCOORD_1"},{"bufferView":0,"byteOffset":28,"componentType":5123,"count":1886,"type":"VEC4","name":"Cube.005_vertices#0_COLOR_0"},{"bufferView":1,"componentType":5123,"count":1908,"type":"SCALAR","name":"Cube.005_indices#0"},{"bufferView":0,"byteOffset":67896,"componentType":5126,"count":113,"min":[-0.06983951479196549,0.40000003576278689,-0.06970586627721787],"max":[0.07000252604484558,0.5580000281333923,0.07000251859426499],"type":"VEC3","name":"Cylinder.003_vertices#0_POSITION"},{"bufferView":0,"byteOffset":67908,"componentType":5120,"count":113,"type":"VEC4","name":"Cylinder.003_vertices#0_TANGENT"},{"bufferView":0,"byteOffset":67912,"componentType":5120,"count":113,"type":"VEC4","name":"Cylinder.003_vertices#0_NORMAL"},{"bufferView":0,"byteOffset":67916,"componentType":5122,"count":113,"type":"VEC2","name":"Cylinder.003_vertices#0_TEXCOORD_0"},{"bufferView":0,"byteOffset":67920,"componentType":5122,"count":113,"type":"VEC2","name":"Cylinder.003_vertices#0_TEXCOORD_1"},{"bufferView":0,"byteOffset":67924,"componentType":5123,"count":113,"type":"VEC4","name":"Cylinder.003_vertices#0_COLOR_0"},{"bufferView":1,"byteOffset":3816,"componentType":5123,"count":408,"type":"SCALAR","name":"Cylinder.003_indices#0"}],"asset":{"generator":"Khronos glTF Blender I/O v5.2.39 and Asobo Studio MSFS2024 Blender I/O v6.4.9 with Blender v5.2.0","copyright":"OPS ROOM","version":"2.0","extensions":{"ASOBO_asset_optimized":{"BoundingBoxMax":[1.7990673780441285,0.5580000281333923,0.10807487368583679],"BoundingBoxMin":[-1.799067497253418,0.0010515163885429502,-0.1080770194530487],"MajorVersion":4,"MinorVersion":7,"UseCheckerboardMaterialForMissingTextures":true,"UseOnlyFilenameForImageURI":true},"ASOBO_normal_map_convention":{"tangent_space_convention":"DirectX"}}},"bufferViews":[{"buffer":0,"byteLength":71964,"byteStride":36,"target":34962,"name":"BufferViewVertexND"},{"buffer":0,"byteLength":4632,"byteOffset":71964,"target":34963,"name":"BufferViewIndexU16"}],"materials":[{"name":"Barrier_Reflective_Stripe","doubleSided":true,"pbrMetallicRoughness":{"metallicFactor":0.0,"roughnessFactor":0.5}},{"name":"Beacon_Red_Lens","doubleSided":true,"emissiveFactor":[1.0,0.15000000596046449,0.07999999821186066],"pbrMetallicRoughness":{"baseColorFactor":[1.0,0.119999997317791,0.05999999865889549,1.0],"metallicFactor":0.0,"roughnessFactor":0.15000000596046449}}],"meshes":[{"primitives":[{"attributes":{"COLOR_0":5,"NORMAL":2,"POSITION":0,"TANGENT":1,"TEXCOORD_0":3,"TEXCOORD_1":4},"indices":6,"material":0,"mode":4,"extras":{"ASOBO_primitive":{"PrimitiveCount":636,"UV2Length":3.039184808731079,"UVLength":3.039184808731079,"VertexCount":1886,"VertexType":"VTX","VertexVersion":2}}}],"name":"Cube.005"},{"primitives":[{"attributes":{"COLOR_0":12,"NORMAL":9,"POSITION":7,"TANGENT":8,"TEXCOORD_0":10,"TEXCOORD_1":11},"indices":13,"material":1,"mode":4,"extras":{"ASOBO_primitive":{"PrimitiveCount":136,"UV2Length":0.7025524973869324,"UVLength":0.7025524973869324,"VertexCount":113,"VertexType":"VTX","VertexVersion":2}}}],"name":"Cylinder.003"}],"nodes":[{"mesh":0,"extensions":{"ASOBO_unique_id":{"id":"BARRICADE_BODY"}},"name":"BARRICADE_BODY"},{"mesh":1,"extensions":{"ASOBO_unique_id":{"id":"BEACON"}},"name":"BEACON"},{"translation":[0.0,0.5529999732971191,0.0],"rotation":[-0.7071067690849304,0.0,0.0,-0.70710688829422],"extensions":{"ASOBO_street_light":{"color":[1,0.07999999821186066,0.03999999910593033],"cone_angle":360,"day_night_cycle":false,"daytime_intensity":10000,"flare_enabled":true,"flare_only":false,"flash_duration":0.5,"flash_frequency":30,"flash_phase":0,"has_symmetry":false,"intensity":250,"random_phase":false,"rotation_phase":0,"rotation_speed":0},"ASOBO_unique_id":{"id":"LIGHT_BEACON"}},"name":"LIGHT_BEACON"}],"scene":0,"scenes":[{"nodes":[0,1,2],"name":"Scene"}],"extensionsUsed":["ASOBO_normal_map_convention","ASOBO_unique_id","ASOBO_street_light","ASOBO_asset_optimized"],"buffers":[{"byteLength":76596,"uri":"BARRICADE_T3_ORANGE_LOD01.bin"}]}
