{"accessors":[{"bufferView":0,"componentType":5126,"count":2936,"min":[-1.7999999523162842,0.0,-0.10806228220462799],"max":[1.7999999523162842,0.4000000059604645,0.10806228220462799],"type":"VEC3","name":"Cube.001_vertices#0_POSITION"},{"bufferView":0,"byteOffset":12,"componentType":5120,"count":2936,"type":"VEC4","name":"Cube.001_vertices#0_TANGENT"},{"bufferView":0,"byteOffset":16,"componentType":5120,"count":2936,"type":"VEC4","name":"Cube.001_vertices#0_NORMAL"},{"bufferView":0,"byteOffset":20,"componentType":5122,"count":2936,"type":"VEC2","name":"Cube.001_vertices#0_TEXCOORD_0"},{"bufferView":0,"byteOffset":24,"componentType":5122,"count":2936,"type":"VEC2","name":"Cube.001_vertices#0_TEXCOORD_1"},{"bufferView":0,"byteOffset":28,"componentType":5123,"count":2936,"type":"VEC4","name":"Cube.001_vertices#0_COLOR_0"},{"bufferView":1,"componentType":5123,"count":4776,"type":"SCALAR","name":"Cube.001_indices#0"},{"bufferView":0,"byteOffset":105696,"componentType":5126,"count":279,"min":[-0.06999998539686203,0.4000000059604645,-0.07000000029802323],"max":[0.07000000029802323,0.5580000281333923,0.06999999284744263],"type":"VEC3","name":"Cylinder.002_vertices#0_POSITION"},{"bufferView":0,"byteOffset":105708,"componentType":5120,"count":279,"type":"VEC4","name":"Cylinder.002_vertices#0_TANGENT"},{"bufferView":0,"byteOffset":105712,"componentType":5120,"count":279,"type":"VEC4","name":"Cylinder.002_vertices#0_NORMAL"},{"bufferView":0,"byteOffset":105716,"componentType":5122,"count":279,"type":"VEC2","name":"Cylinder.002_vertices#0_TEXCOORD_0"},{"bufferView":0,"byteOffset":105720,"componentType":5122,"count":279,"type":"VEC2","name":"Cylinder.002_vertices#0_TEXCOORD_1"},{"bufferView":0,"byteOffset":105724,"componentType":5123,"count":279,"type":"VEC4","name":"Cylinder.002_vertices#0_COLOR_0"},{"bufferView":1,"byteOffset":9552,"componentType":5123,"count":1020,"type":"SCALAR","name":"Cylinder.002_indices#0"}],"asset":{"generator":"Khronos glTF Blender I/O v5.2.39 and Asobo Studio MSFS2024 Blender I/O v6.4.9 with Blender v5.2.0","copyright":"OPS ROOM","version":"2.0","extensions":{"ASOBO_asset_optimized":{"BoundingBoxMax":[1.7999999523162842,0.5580000281333923,0.10806228220462799],"BoundingBoxMin":[-1.7999999523162842,0.0,-0.10806228220462799],"MajorVersion":4,"MinorVersion":7,"UseCheckerboardMaterialForMissingTextures":true,"UseOnlyFilenameForImageURI":true},"ASOBO_normal_map_convention":{"tangent_space_convention":"DirectX"}}},"bufferViews":[{"buffer":0,"byteLength":115740,"byteStride":36,"target":34962,"name":"BufferViewVertexND"},{"buffer":0,"byteLength":11592,"byteOffset":115740,"target":34963,"name":"BufferViewIndexU16"}],"materials":[{"name":"Beacon_Red_Lens","doubleSided":true,"emissiveFactor":[1.0,0.15000000596046449,0.07999999821186066],"pbrMetallicRoughness":{"baseColorFactor":[1.0,0.119999997317791,0.05999999865889549,1.0],"metallicFactor":0.0,"roughnessFactor":0.15000000596046449}},{"name":"Barrier_Reflective_Stripe","doubleSided":true,"pbrMetallicRoughness":{"metallicFactor":0.0,"roughnessFactor":0.5}}],"meshes":[{"primitives":[{"attributes":{"COLOR_0":12,"NORMAL":9,"POSITION":7,"TANGENT":8,"TEXCOORD_0":10,"TEXCOORD_1":11},"indices":13,"material":0,"mode":4,"extras":{"ASOBO_primitive":{"PrimitiveCount":340,"UV2Length":0.7035801410675049,"UVLength":0.7035801410675049,"VertexCount":279,"VertexType":"VTX","VertexVersion":2}}}],"name":"Cylinder.002"},{"primitives":[{"attributes":{"COLOR_0":5,"NORMAL":2,"POSITION":0,"TANGENT":1,"TEXCOORD_0":3,"TEXCOORD_1":4},"indices":6,"material":1,"mode":4,"extras":{"ASOBO_primitive":{"PrimitiveCount":1592,"UV2Length":3.039184808731079,"UVLength":3.039184808731079,"VertexCount":2936,"VertexType":"VTX","VertexVersion":2}}}],"name":"Cube.001"}],"nodes":[{"mesh":0,"extensions":{"ASOBO_unique_id":{"id":"BEACON"}},"name":"BEACON"},{"mesh":1,"extensions":{"ASOBO_unique_id":{"id":"BARRICADE_BODY"}},"name":"BARRICADE_BODY","children":[0]},{"translation":[0.0,0.5529999732971191,0.0],"rotation":[-0.7071067690849304,0.0,0.0,-0.70710688829422],"extensions":{"ASOBO_street_light":{"color":[1,0.07999999821186066,0.03999999910593033],"cone_angle":360,"day_night_cycle":false,"daytime_intensity":10000,"flare_enabled":true,"flare_only":false,"flash_duration":0.5,"flash_frequency":30,"flash_phase":0,"has_symmetry":false,"intensity":250,"random_phase":false,"rotation_phase":0,"rotation_speed":0},"ASOBO_unique_id":{"id":"LIGHT_BEACON"}},"name":"LIGHT_BEACON"}],"scene":0,"scenes":[{"nodes":[1,2],"name":"Scene"}],"extensionsUsed":["ASOBO_normal_map_convention","ASOBO_unique_id","ASOBO_street_light","ASOBO_asset_optimized"],"buffers":[{"byteLength":127332,"uri":"BARRICADE_T3_WHITE_LOD00.bin"}]}
