{
	"asset":{
		"copyright":"OPS ROOM",
		"extensions":{
			"ASOBO_normal_map_convention":{
				"tangent_space_convention":"DirectX"
			}
		},
		"generator":"Khronos glTF Blender I/O v4.2.83 and Asobo Studio MSFS2024 Blender I/O v6.4.9 with Blender v4.2.23",
		"version":"2.0"
	},
	"extensionsUsed":[
		"ASOBO_normal_map_convention",
		"ASOBO_unique_id"
	],
	"scene":0,
	"scenes":[
		{
			"name":"Scene",
			"nodes":[
				0,
				1
			]
		}
	],
	"nodes":[
		{
			"extensions":{
				"ASOBO_unique_id":{
					"id":"X_LEG_A"
				}
			},
			"mesh":0,
			"name":"X_LEG_A"
		},
		{
			"extensions":{
				"ASOBO_unique_id":{
					"id":"X_LEG_B"
				}
			},
			"mesh":1,
			"name":"X_LEG_B"
		}
	],
	"materials":[
		{
			"alphaMode":"OPAQUE",
			"doubleSided":false,
			"emissiveFactor":[
				0,
				0,
				0
			],
			"extras":{},
			"name":"X_TOP",
			"pbrMetallicRoughness":{
				"baseColorFactor":[
					0.9700000286102295,
					0.9700000286102295,
					0.9700000286102295,
					1
				],
				"metallicFactor":0,
				"roughnessFactor":0.9200000166893005
			}
		}
	],
	"meshes":[
		{
			"name":"Cube.001",
			"primitives":[
				{
					"attributes":{
						"POSITION":0,
						"NORMAL":1,
						"TEXCOORD_0":2,
						"TANGENT":3
					},
					"indices":4,
					"material":0
				}
			]
		},
		{
			"name":"Cube.002",
			"primitives":[
				{
					"attributes":{
						"POSITION":5,
						"NORMAL":6,
						"TEXCOORD_0":7,
						"TANGENT":8
					},
					"indices":4,
					"material":0
				}
			]
		}
	],
	"accessors":[
		{
			"bufferView":0,
			"componentType":5126,
			"count":24,
			"max":[
				9.149999618530273,
				0.03500000014901161,
				1.5
			],
			"min":[
				-9.149999618530273,
				0.015000000596046448,
				-1.5
			],
			"type":"VEC3"
		},
		{
			"bufferView":1,
			"componentType":5126,
			"count":24,
			"type":"VEC3"
		},
		{
			"bufferView":2,
			"componentType":5126,
			"count":24,
			"type":"VEC2"
		},
		{
			"bufferView":3,
			"componentType":5126,
			"count":24,
			"type":"VEC4"
		},
		{
			"bufferView":4,
			"componentType":5123,
			"count":36,
			"type":"SCALAR"
		},
		{
			"bufferView":5,
			"componentType":5126,
			"count":24,
			"max":[
				1.5,
				0.03500000014901161,
				9.149999618530273
			],
			"min":[
				-1.5,
				0.015000000596046448,
				-9.149999618530273
			],
			"type":"VEC3"
		},
		{
			"bufferView":6,
			"componentType":5126,
			"count":24,
			"type":"VEC3"
		},
		{
			"bufferView":7,
			"componentType":5126,
			"count":24,
			"type":"VEC2"
		},
		{
			"bufferView":8,
			"componentType":5126,
			"count":24,
			"type":"VEC4"
		}
	],
	"bufferViews":[
		{
			"buffer":0,
			"byteLength":288,
			"byteOffset":0,
			"target":34962
		},
		{
			"buffer":0,
			"byteLength":288,
			"byteOffset":288,
			"target":34962
		},
		{
			"buffer":0,
			"byteLength":192,
			"byteOffset":576,
			"target":34962
		},
		{
			"buffer":0,
			"byteLength":384,
			"byteOffset":768,
			"target":34962
		},
		{
			"buffer":0,
			"byteLength":72,
			"byteOffset":1152,
			"target":34963
		},
		{
			"buffer":0,
			"byteLength":288,
			"byteOffset":1224,
			"target":34962
		},
		{
			"buffer":0,
			"byteLength":288,
			"byteOffset":1512,
			"target":34962
		},
		{
			"buffer":0,
			"byteLength":192,
			"byteOffset":1800,
			"target":34962
		},
		{
			"buffer":0,
			"byteLength":384,
			"byteOffset":1992,
			"target":34962
		}
	],
	"buffers":[
		{
			"byteLength":2376,
			"uri":"X_MARKER_RUNWAY.bin"
		}
	]
}
