{
	"asset":{
		"copyright":"OPS ROOM",
		"extensions":{
			"ASOBO_normal_map_convention":{
				"tangent_space_convention":"DirectX"
			}
		},
		"generator":"Khronos glTF Blender I/O v4.2.83 and Asobo Studio MSFS2024 Blender I/O v6.4.9 with Blender v4.2.23",
		"version":"2.0"
	},
	"extensionsUsed":[
		"ASOBO_normal_map_convention",
		"ASOBO_unique_id"
	],
	"scene":0,
	"scenes":[
		{
			"name":"Scene",
			"nodes":[
				0,
				1,
				2,
				3,
				4
			]
		}
	],
	"nodes":[
		{
			"extensions":{
				"ASOBO_unique_id":{
					"id":"BARRIER_BODY"
				}
			},
			"mesh":0,
			"name":"BARRIER_BODY"
		},
		{
			"extensions":{
				"ASOBO_unique_id":{
					"id":"MALE_TAB"
				}
			},
			"mesh":1,
			"name":"MALE_TAB"
		},
		{
			"extensions":{
				"ASOBO_unique_id":{
					"id":"FILL_CAP"
				}
			},
			"mesh":2,
			"name":"FILL_CAP"
		},
		{
			"extensions":{
				"ASOBO_unique_id":{
					"id":"BEACON_BASE"
				}
			},
			"mesh":3,
			"name":"BEACON_BASE"
		},
		{
			"extensions":{
				"ASOBO_unique_id":{
					"id":"BEACON_DOME"
				}
			},
			"mesh":4,
			"name":"BEACON_DOME",
			"translation":[
				0,
				0.2919999957084656,
				0
			]
		}
	],
	"materials":[
		{
			"alphaMode":"OPAQUE",
			"doubleSided":false,
			"emissiveFactor":[
				0,
				0,
				0
			],
			"extras":{},
			"name":"BARRIER_ORANGE",
			"pbrMetallicRoughness":{
				"baseColorFactor":[
					1,
					0.3330000042915344,
					0,
					1
				],
				"metallicFactor":0,
				"roughnessFactor":0.6499999761581421
			}
		},
		{
			"alphaMode":"OPAQUE",
			"doubleSided":false,
			"emissiveFactor":[
				0,
				0,
				0
			],
			"extras":{},
			"name":"CAP_DARK",
			"pbrMetallicRoughness":{
				"baseColorFactor":[
					0.25,
					0.25,
					0.25,
					1
				],
				"metallicFactor":0,
				"roughnessFactor":0.5
			}
		},
		{
			"alphaMode":"OPAQUE",
			"doubleSided":false,
			"emissiveFactor":[
				80,
				4.799999892711639,
				3.1999999284744263
			],
			"extras":{},
			"name":"BEACON_RED_DIM",
			"pbrMetallicRoughness":{
				"baseColorFactor":[
					0.6000000238418579,
					0.03999999910593033,
					0.029999999329447746,
					1
				],
				"metallicFactor":0,
				"roughnessFactor":0.20000000298023224
			}
		}
	],
	"meshes":[
		{
			"name":"Cube.001",
			"primitives":[
				{
					"attributes":{
						"POSITION":0,
						"NORMAL":1,
						"TEXCOORD_0":2,
						"TANGENT":3
					},
					"indices":4,
					"material":0
				}
			]
		},
		{
			"name":"Cylinder",
			"primitives":[
				{
					"attributes":{
						"POSITION":5,
						"NORMAL":6,
						"TEXCOORD_0":7,
						"TANGENT":8
					},
					"indices":9,
					"material":0
				}
			]
		},
		{
			"name":"Cylinder.002",
			"primitives":[
				{
					"attributes":{
						"POSITION":10,
						"NORMAL":11,
						"TEXCOORD_0":12,
						"TANGENT":13
					},
					"indices":14,
					"material":1
				}
			]
		},
		{
			"name":"Cylinder.003",
			"primitives":[
				{
					"attributes":{
						"POSITION":15,
						"NORMAL":16,
						"TEXCOORD_0":17,
						"TANGENT":18
					},
					"indices":19,
					"material":2
				}
			]
		},
		{
			"name":"Sphere",
			"primitives":[
				{
					"attributes":{
						"POSITION":20,
						"NORMAL":21,
						"TEXCOORD_0":22,
						"TANGENT":23
					},
					"indices":24,
					"material":2
				}
			]
		}
	],
	"accessors":[
		{
			"bufferView":0,
			"componentType":5126,
			"count":624,
			"max":[
				0.125,
				0.25,
				1.2200000286102295
			],
			"min":[
				-0.125,
				0,
				-1.2200000286102295
			],
			"type":"VEC3"
		},
		{
			"bufferView":1,
			"componentType":5126,
			"count":624,
			"type":"VEC3"
		},
		{
			"bufferView":2,
			"componentType":5126,
			"count":624,
			"type":"VEC2"
		},
		{
			"bufferView":3,
			"componentType":5126,
			"count":624,
			"type":"VEC4"
		},
		{
			"bufferView":4,
			"componentType":5123,
			"count":1134,
			"type":"SCALAR"
		},
		{
			"bufferView":5,
			"componentType":5126,
			"count":210,
			"max":[
				0.05999999865889549,
				0.18500018119812012,
				-1.2199997901916504
			],
			"min":[
				-0.05999999865889549,
				0.06499981880187988,
				-1.320000171661377
			],
			"type":"VEC3"
		},
		{
			"bufferView":6,
			"componentType":5126,
			"count":210,
			"type":"VEC3"
		},
		{
			"bufferView":7,
			"componentType":5126,
			"count":210,
			"type":"VEC2"
		},
		{
			"bufferView":8,
			"componentType":5126,
			"count":210,
			"type":"VEC4"
		},
		{
			"bufferView":9,
			"componentType":5123,
			"count":372,
			"type":"SCALAR"
		},
		{
			"bufferView":10,
			"componentType":5126,
			"count":192,
			"max":[
				0.05000000074505806,
				0.26999998092651367,
				0.05000000074505806
			],
			"min":[
				-0.05000000074505806,
				0.2499999850988388,
				-0.05000000074505806
			],
			"type":"VEC3"
		},
		{
			"bufferView":11,
			"componentType":5126,
			"count":192,
			"type":"VEC3"
		},
		{
			"bufferView":12,
			"componentType":5126,
			"count":192,
			"type":"VEC2"
		},
		{
			"bufferView":13,
			"componentType":5126,
			"count":192,
			"type":"VEC4"
		},
		{
			"bufferView":14,
			"componentType":5123,
			"count":372,
			"type":"SCALAR"
		},
		{
			"bufferView":15,
			"componentType":5126,
			"count":192,
			"max":[
				0.017999999225139618,
				0.28999999165534973,
				0.017999999225139618
			],
			"min":[
				-0.017999999225139618,
				0.27000001072883606,
				-0.017999999225139618
			],
			"type":"VEC3"
		},
		{
			"bufferView":16,
			"componentType":5126,
			"count":192,
			"type":"VEC3"
		},
		{
			"bufferView":17,
			"componentType":5126,
			"count":192,
			"type":"VEC2"
		},
		{
			"bufferView":18,
			"componentType":5126,
			"count":192,
			"type":"VEC4"
		},
		{
			"bufferView":19,
			"componentType":5123,
			"count":372,
			"type":"SCALAR"
		},
		{
			"bufferView":20,
			"componentType":5126,
			"count":125,
			"max":[
				0.02200000360608101,
				0.02199999988079071,
				0.022000007331371307
			],
			"min":[
				-0.022000011056661606,
				0,
				-0.022000016644597054
			],
			"type":"VEC3"
		},
		{
			"bufferView":21,
			"componentType":5126,
			"count":125,
			"type":"VEC3"
		},
		{
			"bufferView":22,
			"componentType":5126,
			"count":125,
			"type":"VEC2"
		},
		{
			"bufferView":23,
			"componentType":5126,
			"count":125,
			"type":"VEC4"
		},
		{
			"bufferView":24,
			"componentType":5123,
			"count":540,
			"type":"SCALAR"
		}
	],
	"bufferViews":[
		{
			"buffer":0,
			"byteLength":7488,
			"byteOffset":0,
			"target":34962
		},
		{
			"buffer":0,
			"byteLength":7488,
			"byteOffset":7488,
			"target":34962
		},
		{
			"buffer":0,
			"byteLength":4992,
			"byteOffset":14976,
			"target":34962
		},
		{
			"buffer":0,
			"byteLength":9984,
			"byteOffset":19968,
			"target":34962
		},
		{
			"buffer":0,
			"byteLength":2268,
			"byteOffset":29952,
			"target":34963
		},
		{
			"buffer":0,
			"byteLength":2520,
			"byteOffset":32220,
			"target":34962
		},
		{
			"buffer":0,
			"byteLength":2520,
			"byteOffset":34740,
			"target":34962
		},
		{
			"buffer":0,
			"byteLength":1680,
			"byteOffset":37260,
			"target":34962
		},
		{
			"buffer":0,
			"byteLength":3360,
			"byteOffset":38940,
			"target":34962
		},
		{
			"buffer":0,
			"byteLength":744,
			"byteOffset":42300,
			"target":34963
		},
		{
			"buffer":0,
			"byteLength":2304,
			"byteOffset":43044,
			"target":34962
		},
		{
			"buffer":0,
			"byteLength":2304,
			"byteOffset":45348,
			"target":34962
		},
		{
			"buffer":0,
			"byteLength":1536,
			"byteOffset":47652,
			"target":34962
		},
		{
			"buffer":0,
			"byteLength":3072,
			"byteOffset":49188,
			"target":34962
		},
		{
			"buffer":0,
			"byteLength":744,
			"byteOffset":52260,
			"target":34963
		},
		{
			"buffer":0,
			"byteLength":2304,
			"byteOffset":53004,
			"target":34962
		},
		{
			"buffer":0,
			"byteLength":2304,
			"byteOffset":55308,
			"target":34962
		},
		{
			"buffer":0,
			"byteLength":1536,
			"byteOffset":57612,
			"target":34962
		},
		{
			"buffer":0,
			"byteLength":3072,
			"byteOffset":59148,
			"target":34962
		},
		{
			"buffer":0,
			"byteLength":744,
			"byteOffset":62220,
			"target":34963
		},
		{
			"buffer":0,
			"byteLength":1500,
			"byteOffset":62964,
			"target":34962
		},
		{
			"buffer":0,
			"byteLength":1500,
			"byteOffset":64464,
			"target":34962
		},
		{
			"buffer":0,
			"byteLength":1000,
			"byteOffset":65964,
			"target":34962
		},
		{
			"buffer":0,
			"byteLength":2000,
			"byteOffset":66964,
			"target":34962
		},
		{
			"buffer":0,
			"byteLength":1080,
			"byteOffset":68964,
			"target":34963
		}
	],
	"buffers":[
		{
			"byteLength":70044,
			"uri":"BARRIER_LOW_ORANGE.bin"
		}
	]
}
